Coordinates
version=1
nRows=60
nColumns=12
inDegrees=yes

Units are S.I. units (second, meters, Newtons, ...)
Angles are in degrees

endheader
time	SC_y	SC_z	SC_x	AC_y	AC_z	AC_x	GH_y	GH_z	GH_yy	EL_x	PS_y
       0.0              -24.77          6.343          39.11          49.68         -1.107         -14.62          16.46          86.63         -136.0          98.52          147.7
 0.0005768              -24.77          6.345          39.11          49.69         -1.107         -14.62          16.46          86.63         -135.9          98.52          147.7
  0.001154              -24.78          6.348          39.12          49.69         -1.107         -14.62          16.47          86.62         -135.9          98.53          147.7
   0.00173              -24.78          6.351          39.13          49.69         -1.107         -14.62          16.47          86.61         -135.9          98.53          147.7
  0.002307              -24.78          6.355          39.13           49.7         -1.107         -14.62          16.48           86.6         -135.9          98.53          147.7
  0.002884              -24.79          6.358          39.14           49.7         -1.107         -14.62          16.48           86.6         -135.9          98.53          147.7
  0.003461              -24.79          6.362          39.15           49.7         -1.107         -14.61          16.48          86.59         -135.9          98.54          147.7
  0.004037               -24.8          6.366          39.16          49.71         -1.107         -14.61          16.49          86.58         -135.9          98.54          147.7
  0.004614               -24.8           6.37          39.17          49.71         -1.107         -14.61          16.49          86.57         -135.9          98.54          147.7
  0.005191              -24.81          6.375          39.18          49.72         -1.108         -14.61           16.5          86.56         -135.9          98.55          147.7
  0.005768              -24.81           6.38          39.19          49.72         -1.108         -14.61          16.51          86.55         -135.9          98.55          147.7
  0.006345              -24.82          6.385           39.2          49.73         -1.108          -14.6          16.51          86.54         -135.9          98.55          147.7
  0.006921              -24.83          6.391          39.22          49.73         -1.108          -14.6          16.52          86.52         -135.8          98.56          147.7
  0.007498              -24.83          6.397          39.23          49.74         -1.108          -14.6          16.53          86.51         -135.8          98.56          147.7
  0.008075              -24.84          6.404          39.25          49.75         -1.108          -14.6          16.54          86.49         -135.8          98.57          147.7
  0.008652              -24.85          6.411          39.26          49.76         -1.108         -14.59          16.54          86.48         -135.8          98.57          147.7
  0.009228              -24.86          6.419          39.28          49.76         -1.109         -14.59          16.55          86.46         -135.8          98.58          147.7
  0.009805              -24.87          6.428           39.3          49.77         -1.109         -14.59          16.56          86.44         -135.8          98.59          147.7
   0.01038              -24.88          6.437          39.32          49.78         -1.109         -14.58          16.58          86.42         -135.8          98.59          147.7
   0.01096              -24.89          6.447          39.34          49.79         -1.109         -14.58          16.59          86.39         -135.7           98.6          147.7
   0.01154              -24.91          6.459          39.37           49.8          -1.11         -14.57           16.6          86.37         -135.7          98.61          147.8
   0.01211              -24.92          6.471           39.4          49.82          -1.11         -14.57          16.62          86.34         -135.7          98.62          147.8
   0.01269              -24.94          6.485          39.43          49.83          -1.11         -14.56          16.63          86.31         -135.7          98.63          147.8
   0.01327              -24.96            6.5          39.46          49.85         -1.111         -14.55          16.65          86.27         -135.6          98.64          147.8
   0.01384              -24.98          6.517           39.5          49.87         -1.111         -14.55          16.67          86.24         -135.6          98.66          147.8
   0.01442               -25.0          6.536          39.54          49.89         -1.112         -14.54           16.7          86.19         -135.5          98.67          147.8
     0.015              -25.02          6.557          39.59          49.91         -1.112         -14.53          16.72          86.15         -135.5          98.69          147.8
   0.01557              -25.05          6.581          39.64          49.93         -1.113         -14.52          16.75          86.09         -135.4          98.71          147.8
   0.01615              -25.08          6.608          39.71          49.96         -1.114          -14.5          16.78          86.03         -135.4          98.73          147.8
   0.01673              -25.12          6.639          39.77          49.99         -1.115         -14.49          16.82          85.96         -135.3          98.75          147.8
    0.0173              -25.16          6.673          39.85          50.03         -1.115         -14.48          16.86          85.88         -135.3          98.78          147.8
   0.01788              -25.21          6.713          39.94          50.07         -1.117         -14.46          16.91          85.79         -135.2          98.81          147.8
   0.01846              -25.26           6.76          40.05          50.12         -1.118         -14.44          16.97          85.69         -135.1          98.84          147.8
   0.01903              -25.32          6.813          40.17          50.17         -1.119         -14.41          17.03          85.56         -135.0          98.89          147.8
   0.01961               -25.4          6.876          40.31          50.24         -1.121         -14.38          17.11          85.42         -134.8          98.93          147.9
   0.02019              -25.49           6.95          40.48          50.31         -1.123         -14.35           17.2          85.25         -134.7          98.99          147.9
   0.02076              -25.59          7.039          40.67          50.41         -1.125         -14.31          17.31          85.05         -134.5          99.06          147.9
   0.02134              -25.71          7.144          40.91          50.52         -1.128         -14.26          17.44          84.81         -134.3          99.14          147.9
   0.02192              -25.86          7.272           41.2          50.65         -1.131         -14.21          17.59          84.53         -134.0          99.24          147.9
   0.02249              -26.05          7.428          41.55          50.81         -1.136         -14.14          17.78          84.17         -133.7          99.36          148.0
   0.02307              -26.27           7.62          41.99          51.01         -1.141         -14.05          18.02          83.74         -133.3          99.51          148.0
   0.02365              -26.56          7.861          42.53          51.26         -1.147         -13.94          18.31          83.19         -132.8          99.69          148.1
   0.02422              -26.91          8.163          43.21          51.57         -1.155         -13.81          18.68          82.51         -132.1          99.93          148.2
    0.0248              -27.36          8.548          44.07          51.97         -1.166         -13.64          19.14          81.63         -131.3          100.2          148.3
   0.02538              -27.94           9.04          45.18          52.48         -1.179         -13.42          19.74          80.52         -130.3          100.6          148.4
   0.02595              -28.69          9.671           46.6          53.14         -1.196         -13.13          20.51          79.09         -128.9          101.1          148.5
   0.02653              -29.63          10.48          48.42          53.97         -1.217         -12.77          21.49          77.26         -127.2          101.7          148.7
   0.02711              -30.83          11.49          50.71          55.02         -1.244         -12.32          22.73          74.96         -125.1          102.5          149.0
   0.02769              -32.28          12.73          53.49          56.31         -1.277         -11.77          24.23          72.16         -122.5          103.5          149.3
   0.02826              -33.97          14.16          56.72          57.79         -1.316         -11.12          25.98          68.91         -119.5          104.6          149.6
   0.02884              -35.79          15.71          60.21           59.4         -1.357         -10.43          27.86          65.39         -116.2          105.8          150.0
   0.02942              -37.62          17.27          63.71          61.01         -1.399         -9.735          29.75          61.88         -112.9          107.0          150.4
   0.02999               -39.3           18.7          66.93           62.5         -1.437         -9.093           31.5          58.63         -109.9          108.1          150.8
   0.03057              -40.76          19.93          69.72          63.78          -1.47          -8.54           33.0          55.83         -107.3          109.0          151.1
   0.03115              -41.95          20.95           72.0          64.83         -1.497         -8.086          34.23          53.53         -105.2          109.8          151.3
   0.03172               -42.9          21.76          73.82          65.67         -1.519         -7.725          35.22           51.7         -103.5          110.4          151.5
    0.0323              -43.64          22.39          75.24          66.32         -1.536         -7.442          35.98          50.27         -102.1          110.9          151.7
   0.03288              -44.22          22.88          76.35          66.83         -1.549         -7.222          36.58          49.15         -101.1          111.3          151.8
   0.03345              -44.67          23.26          77.22          67.23         -1.559          -7.05          37.05          48.28         -100.3          111.6          151.9
   0.03403              -45.03          23.57           77.9          67.54         -1.567         -6.914          37.42           47.6         -99.65          111.8          152.0
